<svg width="1920" height="1080" viewBox="0 0 1920 1080" fill="none" xmlns="http://www.w3.org/2000/svg">
<g clip-path="url(#clip0_169_28)">
<rect width="1920" height="1080" fill="#F5E9DB"/>
<rect x="0.986879" y="3.05905" width="902.959" height="307.993" rx="37.5" transform="matrix(0.93761 0.42222 -0.542858 0.801401 1209.73 663.543)" fill="#F9C551" stroke="#130D01" stroke-width="5"/>
<rect x="0.986879" y="3.05905" width="902.959" height="307.993" rx="37.5" transform="matrix(0.93761 0.42222 -0.542858 0.801401 480.057 298.448)" fill="#F9C551" stroke="#130D01" stroke-width="5"/>
<rect x="0.986879" y="3.05905" width="1658.64" height="965.571" rx="12.5" transform="matrix(0.93761 0.42222 -0.542858 0.801401 382.246 312.996)" fill="#F6F4EF" stroke="#130D01" stroke-width="5"/>
<rect x="0.986879" y="3.05905" width="1596.69" height="945.706" rx="12.5" transform="matrix(0.93761 0.42222 -0.542858 0.801401 243.476 346.572)" fill="#F6F4EF" stroke="#130D01" stroke-width="5"/>
<rect x="0.986879" y="3.05905" width="1596.69" height="945.706" rx="37.5" transform="matrix(0.93761 0.42222 -0.542858 0.801401 416.352 380.352)" fill="#F9C551" stroke="#130D01" stroke-width="5"/>
<path d="M1165.25 533.32C1164.59 533.32 1163.91 533.173 1163.21 532.88C1162.55 532.56 1162.21 532.053 1162.21 531.36V512.64C1162.21 511.787 1162.43 511.2 1162.85 510.88C1163.28 510.56 1163.63 510.36 1163.89 510.28H1156.17C1155.53 510.28 1155.05 510 1154.73 509.44C1154.44 508.853 1154.29 508.253 1154.29 507.64C1154.29 506.973 1154.45 506.373 1154.77 505.84C1155.09 505.28 1155.56 505 1156.17 505H1174.05C1174.67 505 1175.13 505.28 1175.45 505.84C1175.77 506.373 1175.93 506.973 1175.93 507.64C1175.93 508.253 1175.77 508.853 1175.45 509.44C1175.16 510 1174.69 510.28 1174.05 510.28H1167.97V531.36C1167.97 532.027 1167.69 532.52 1167.13 532.84C1166.6 533.16 1165.97 533.32 1165.25 533.32ZM1183.43 533.32C1180.77 533.32 1178.67 532.88 1177.15 532C1175.66 531.12 1174.59 529.907 1173.95 528.36C1173.34 526.813 1173.03 525.04 1173.03 523.04C1173.03 519.36 1173.85 516.72 1175.47 515.12C1177.1 513.493 1179.29 512.68 1182.03 512.68C1183.69 512.68 1185.15 512.96 1186.43 513.52C1187.71 514.08 1188.71 514.88 1189.43 515.92C1190.15 516.933 1190.51 518.173 1190.51 519.64C1190.51 523.907 1187.47 526.04 1181.39 526.04H1179.07C1179.29 526.867 1179.63 527.52 1180.11 528C1180.62 528.453 1181.5 528.68 1182.75 528.68C1183.45 528.68 1184.01 528.64 1184.43 528.56C1184.86 528.48 1185.26 528.4 1185.63 528.32C1186.03 528.24 1186.49 528.2 1186.99 528.2C1187.71 528.2 1188.29 528.333 1188.71 528.6C1189.14 528.84 1189.35 529.347 1189.35 530.12C1189.35 531.213 1188.87 532.027 1187.91 532.56C1186.98 533.067 1185.49 533.32 1183.43 533.32ZM1178.79 523.08C1179.01 522.787 1179.25 522.6 1179.51 522.52C1179.78 522.413 1180.19 522.36 1180.75 522.36C1182.33 522.36 1183.41 522.213 1183.99 521.92C1184.61 521.6 1184.91 521.04 1184.91 520.24C1184.91 519.227 1184.63 518.453 1184.07 517.92C1183.51 517.36 1182.81 517.08 1181.95 517.08C1180.97 517.08 1180.19 517.493 1179.63 518.32C1179.07 519.147 1178.79 520.733 1178.79 523.08ZM1202.55 533.32C1199.3 533.32 1196.89 532.387 1195.31 530.52C1193.74 528.627 1192.95 526.133 1192.95 523.04C1192.95 519.947 1193.74 517.453 1195.31 515.56C1196.89 513.64 1199.3 512.68 1202.55 512.68C1204.61 512.68 1206.1 512.893 1207.03 513.32C1207.99 513.747 1208.47 514.507 1208.47 515.6C1208.47 516.373 1208.26 516.933 1207.83 517.28C1207.41 517.627 1206.83 517.8 1206.11 517.8C1205.61 517.8 1205.21 517.76 1204.91 517.68C1204.62 517.6 1204.3 517.533 1203.95 517.48C1203.63 517.4 1203.13 517.36 1202.43 517.36C1201.5 517.36 1200.75 517.64 1200.19 518.2C1199.66 518.76 1199.27 519.48 1199.03 520.36C1198.82 521.213 1198.71 522.107 1198.71 523.04C1198.71 523.947 1198.79 524.84 1198.95 525.72C1199.14 526.573 1199.5 527.28 1200.03 527.84C1200.57 528.373 1201.38 528.64 1202.47 528.64C1203.49 528.64 1204.23 528.573 1204.71 528.44C1205.19 528.28 1205.66 528.2 1206.11 528.2C1206.83 528.2 1207.41 528.333 1207.83 528.6C1208.26 528.84 1208.47 529.347 1208.47 530.12C1208.47 531.213 1207.99 532.027 1207.03 532.56C1206.1 533.067 1204.61 533.32 1202.55 533.32ZM1218.19 530.64C1218.19 532.427 1217.26 533.32 1215.39 533.32C1214.48 533.32 1213.76 533.093 1213.23 532.64C1212.7 532.187 1212.43 531.52 1212.43 530.64V505.64C1212.43 503.56 1213.4 502.52 1215.35 502.52C1217.27 502.52 1218.23 503.56 1218.23 505.64V509.92C1218.23 510.667 1218.15 511.387 1217.99 512.08C1217.83 512.773 1217.56 513.493 1217.19 514.24C1217.64 513.68 1218.24 513.28 1218.99 513.04C1219.74 512.8 1220.6 512.68 1221.59 512.68C1223.35 512.68 1224.88 513.027 1226.19 513.72C1227.5 514.413 1228.51 515.387 1229.23 516.64C1229.98 517.867 1230.35 519.333 1230.35 521.04V530.64C1230.35 532.427 1229.42 533.32 1227.55 533.32C1226.64 533.32 1225.92 533.093 1225.39 532.64C1224.86 532.187 1224.59 531.52 1224.59 530.64V521.28C1224.59 520.027 1224.3 519.08 1223.71 518.44C1223.15 517.8 1222.36 517.48 1221.35 517.48C1220.36 517.48 1219.59 517.813 1219.03 518.48C1218.47 519.12 1218.19 520.053 1218.19 521.28V530.64ZM1249.96 530.64C1249.96 532.427 1249.02 533.32 1247.16 533.32C1246.25 533.32 1245.53 533.093 1245 532.64C1244.46 532.187 1244.2 531.52 1244.2 530.64V514.8C1244.2 511.12 1244.94 508.493 1246.44 506.92C1247.93 505.347 1250.26 504.56 1253.44 504.56C1256.69 504.56 1259.09 505.36 1260.64 506.96C1262.18 508.56 1262.96 511.173 1262.96 514.8V530.64C1262.96 532.427 1262.02 533.32 1260.16 533.32C1259.25 533.32 1258.53 533.093 1258 532.64C1257.46 532.187 1257.2 531.52 1257.2 530.64V521C1256.69 521.453 1256.13 521.84 1255.52 522.16C1254.93 522.48 1254.24 522.64 1253.44 522.64C1252.26 522.64 1251.38 522.853 1250.8 523.28C1250.24 523.707 1249.96 524.467 1249.96 525.56V530.64ZM1249.72 518.92C1250.14 518.493 1250.65 518.16 1251.24 517.92C1251.85 517.68 1252.58 517.56 1253.44 517.56C1254.45 517.56 1255.22 517.48 1255.76 517.32C1256.32 517.16 1256.7 516.853 1256.92 516.4C1257.13 515.947 1257.24 515.28 1257.24 514.4C1257.24 512.427 1256.96 511.08 1256.4 510.36C1255.84 509.613 1254.84 509.24 1253.4 509.24C1252.06 509.24 1251.14 509.627 1250.64 510.4C1250.16 511.147 1249.92 512.533 1249.92 514.56C1249.92 515.6 1249.9 516.48 1249.88 517.2C1249.85 517.92 1249.8 518.493 1249.72 518.92ZM1276.42 533.32C1273.17 533.32 1270.75 532.387 1269.18 530.52C1267.61 528.627 1266.82 526.133 1266.82 523.04C1266.82 519.947 1267.61 517.453 1269.18 515.56C1270.75 513.64 1273.17 512.68 1276.42 512.68C1278.47 512.68 1279.97 512.893 1280.9 513.32C1281.86 513.747 1282.34 514.507 1282.34 515.6C1282.34 516.373 1282.13 516.933 1281.7 517.28C1281.27 517.627 1280.7 517.8 1279.98 517.8C1279.47 517.8 1279.07 517.76 1278.78 517.68C1278.49 517.6 1278.17 517.533 1277.82 517.48C1277.5 517.4 1276.99 517.36 1276.3 517.36C1275.37 517.36 1274.62 517.64 1274.06 518.2C1273.53 518.76 1273.14 519.48 1272.9 520.36C1272.69 521.213 1272.58 522.107 1272.58 523.04C1272.58 523.947 1272.66 524.84 1272.82 525.72C1273.01 526.573 1273.37 527.28 1273.9 527.84C1274.43 528.373 1275.25 528.64 1276.34 528.64C1277.35 528.64 1278.1 528.573 1278.58 528.44C1279.06 528.28 1279.53 528.2 1279.98 528.2C1280.7 528.2 1281.27 528.333 1281.7 528.6C1282.13 528.84 1282.34 529.347 1282.34 530.12C1282.34 531.213 1281.86 532.027 1280.9 532.56C1279.97 533.067 1278.47 533.32 1276.42 533.32ZM1294.55 533.32C1291.29 533.32 1288.88 532.387 1287.31 530.52C1285.73 528.627 1284.95 526.133 1284.95 523.04C1284.95 519.947 1285.73 517.453 1287.31 515.56C1288.88 513.64 1291.29 512.68 1294.55 512.68C1296.6 512.68 1298.09 512.893 1299.03 513.32C1299.99 513.747 1300.47 514.507 1300.47 515.6C1300.47 516.373 1300.25 516.933 1299.83 517.28C1299.4 517.627 1298.83 517.8 1298.11 517.8C1297.6 517.8 1297.2 517.76 1296.91 517.68C1296.61 517.6 1296.29 517.533 1295.95 517.48C1295.63 517.4 1295.12 517.36 1294.43 517.36C1293.49 517.36 1292.75 517.64 1292.19 518.2C1291.65 518.76 1291.27 519.48 1291.03 520.36C1290.81 521.213 1290.71 522.107 1290.71 523.04C1290.71 523.947 1290.79 524.84 1290.95 525.72C1291.13 526.573 1291.49 527.28 1292.03 527.84C1292.56 528.373 1293.37 528.64 1294.47 528.64C1295.48 528.64 1296.23 528.573 1296.71 528.44C1297.19 528.28 1297.65 528.2 1298.11 528.2C1298.83 528.2 1299.4 528.333 1299.83 528.6C1300.25 528.84 1300.47 529.347 1300.47 530.12C1300.47 531.213 1299.99 532.027 1299.03 532.56C1298.09 533.067 1296.6 533.32 1294.55 533.32ZM1313.59 533.32C1310.92 533.32 1308.83 532.88 1307.31 532C1305.82 531.12 1304.75 529.907 1304.11 528.36C1303.5 526.813 1303.19 525.04 1303.19 523.04C1303.19 519.36 1304 516.72 1305.63 515.12C1307.26 513.493 1309.44 512.68 1312.19 512.68C1313.84 512.68 1315.31 512.96 1316.59 513.52C1317.87 514.08 1318.87 514.88 1319.59 515.92C1320.31 516.933 1320.67 518.173 1320.67 519.64C1320.67 523.907 1317.63 526.04 1311.55 526.04H1309.23C1309.44 526.867 1309.79 527.52 1310.27 528C1310.78 528.453 1311.66 528.68 1312.91 528.68C1313.6 528.68 1314.16 528.64 1314.59 528.56C1315.02 528.48 1315.42 528.4 1315.79 528.32C1316.19 528.24 1316.64 528.2 1317.15 528.2C1317.87 528.2 1318.44 528.333 1318.87 528.6C1319.3 528.84 1319.51 529.347 1319.51 530.12C1319.51 531.213 1319.03 532.027 1318.07 532.56C1317.14 533.067 1315.64 533.32 1313.59 533.32ZM1308.95 523.08C1309.16 522.787 1309.4 522.6 1309.67 522.52C1309.94 522.413 1310.35 522.36 1310.91 522.36C1312.48 522.36 1313.56 522.213 1314.15 521.92C1314.76 521.6 1315.07 521.04 1315.07 520.24C1315.07 519.227 1314.79 518.453 1314.23 517.92C1313.67 517.36 1312.96 517.08 1312.11 517.08C1311.12 517.08 1310.35 517.493 1309.79 518.32C1309.23 519.147 1308.95 520.733 1308.95 523.08ZM1331.1 533.32C1326.09 533.32 1323.58 532.213 1323.58 530C1323.58 529.307 1323.77 528.76 1324.14 528.36C1324.52 527.96 1325.01 527.76 1325.62 527.76C1325.89 527.76 1326.14 527.8 1326.38 527.88C1326.65 527.933 1327.16 528.08 1327.9 528.32C1328.22 528.427 1328.65 528.533 1329.18 528.64C1329.72 528.747 1330.24 528.8 1330.74 528.8C1331.7 528.8 1332.38 528.68 1332.78 528.44C1333.18 528.2 1333.38 527.8 1333.38 527.24C1333.38 526.787 1333.28 526.44 1333.06 526.2C1332.85 525.933 1332.4 525.68 1331.7 525.44C1331.01 525.2 1329.93 524.867 1328.46 524.44C1327.13 524.067 1326.05 523.4 1325.22 522.44C1324.42 521.453 1324.02 520.24 1324.02 518.8C1324.02 516.773 1324.76 515.227 1326.22 514.16C1327.69 513.093 1329.7 512.56 1332.26 512.56C1334.18 512.56 1335.69 512.827 1336.78 513.36C1337.88 513.893 1338.42 514.667 1338.42 515.68C1338.42 516.32 1338.24 516.853 1337.86 517.28C1337.49 517.707 1336.98 517.92 1336.34 517.92C1336.08 517.92 1335.76 517.88 1335.38 517.8C1335.04 517.72 1334.61 517.613 1334.1 517.48C1333.73 517.347 1333.33 517.24 1332.9 517.16C1332.5 517.08 1332.08 517.04 1331.62 517.04C1330.34 517.04 1329.7 517.493 1329.7 518.4C1329.7 518.933 1329.96 519.387 1330.46 519.76C1330.97 520.107 1331.94 520.493 1333.38 520.92C1335.36 521.507 1336.81 522.293 1337.74 523.28C1338.68 524.24 1339.14 525.52 1339.14 527.12C1339.14 528.987 1338.42 530.493 1336.98 531.64C1335.57 532.76 1333.61 533.32 1331.1 533.32ZM1349.54 533.32C1344.53 533.32 1342.02 532.213 1342.02 530C1342.02 529.307 1342.21 528.76 1342.58 528.36C1342.95 527.96 1343.45 527.76 1344.06 527.76C1344.33 527.76 1344.58 527.8 1344.82 527.88C1345.09 527.933 1345.59 528.08 1346.34 528.32C1346.66 528.427 1347.09 528.533 1347.62 528.64C1348.15 528.747 1348.67 528.8 1349.18 528.8C1350.14 528.8 1350.82 528.68 1351.22 528.44C1351.62 528.2 1351.82 527.8 1351.82 527.24C1351.82 526.787 1351.71 526.44 1351.5 526.2C1351.29 525.933 1350.83 525.68 1350.14 525.44C1349.45 525.2 1348.37 524.867 1346.9 524.44C1345.57 524.067 1344.49 523.4 1343.66 522.44C1342.86 521.453 1342.46 520.24 1342.46 518.8C1342.46 516.773 1343.19 515.227 1344.66 514.16C1346.13 513.093 1348.14 512.56 1350.7 512.56C1352.62 512.56 1354.13 512.827 1355.22 513.36C1356.31 513.893 1356.86 514.667 1356.86 515.68C1356.86 516.32 1356.67 516.853 1356.3 517.28C1355.93 517.707 1355.42 517.92 1354.78 517.92C1354.51 517.92 1354.19 517.88 1353.82 517.8C1353.47 517.72 1353.05 517.613 1352.54 517.48C1352.17 517.347 1351.77 517.24 1351.34 517.16C1350.94 517.08 1350.51 517.04 1350.06 517.04C1348.78 517.04 1348.14 517.493 1348.14 518.4C1348.14 518.933 1348.39 519.387 1348.9 519.76C1349.41 520.107 1350.38 520.493 1351.82 520.92C1353.79 521.507 1355.25 522.293 1356.18 523.28C1357.11 524.24 1357.58 525.52 1357.58 527.12C1357.58 528.987 1356.86 530.493 1355.42 531.64C1354.01 532.76 1352.05 533.32 1349.54 533.32ZM1360.23 540.56C1359.59 540.56 1359.11 540.4 1358.79 540.08C1358.47 539.787 1358.31 539.427 1358.31 539C1358.31 538.893 1358.32 538.693 1358.35 538.4C1358.4 538.107 1358.49 537.627 1358.63 536.96C1358.76 536.32 1358.97 535.4 1359.27 534.2C1359.56 533.027 1359.96 531.48 1360.47 529.56C1360.71 528.68 1361.11 528.04 1361.67 527.64C1362.23 527.24 1362.83 527.04 1363.47 527.04C1364.21 527.04 1364.89 527.293 1365.51 527.8C1366.12 528.28 1366.43 528.933 1366.43 529.76C1366.43 530.187 1366.31 530.667 1366.07 531.2L1362.47 538.76C1362.31 539.08 1362.08 539.453 1361.79 539.88C1361.52 540.333 1361 540.56 1360.23 540.56ZM1382.59 533.24C1381.68 533.24 1380.96 533.04 1380.43 532.64C1379.89 532.213 1379.63 531.613 1379.63 530.84V513.56C1379.63 510.467 1380.44 508.2 1382.07 506.76C1383.72 505.293 1386.29 504.56 1389.79 504.56C1392.64 504.56 1394.81 505.28 1396.31 506.72C1397.83 508.133 1398.59 510.187 1398.59 512.88C1398.59 513.813 1398.56 514.72 1398.51 515.6C1398.45 516.453 1398.37 517.053 1398.27 517.4C1397.87 518.867 1397.13 519.987 1396.07 520.76C1397.51 521.96 1398.23 523.347 1398.23 524.92V530.84C1398.23 532.493 1397.31 533.32 1395.47 533.32C1394.56 533.32 1393.84 533.12 1393.31 532.72C1392.77 532.293 1392.51 531.667 1392.51 530.84V525.56C1392.51 524.12 1392.28 523.107 1391.83 522.52C1391.4 521.933 1390.52 521.64 1389.19 521.64C1387.75 521.64 1386.75 521.96 1386.19 522.6C1385.65 523.213 1385.39 524.36 1385.39 526.04V530.84C1385.39 532.44 1384.45 533.24 1382.59 533.24ZM1385.07 518.36C1385.73 517.8 1386.32 517.44 1386.83 517.28C1387.36 517.093 1388.12 517 1389.11 517C1390.44 517 1391.41 516.933 1392.03 516.8C1392.67 516.667 1393.08 516.387 1393.27 515.96C1393.45 515.533 1393.55 514.867 1393.55 513.96C1393.55 512.147 1393.27 510.893 1392.71 510.2C1392.17 509.48 1391.2 509.12 1389.79 509.12C1388.21 509.12 1387.09 509.48 1386.43 510.2C1385.79 510.92 1385.47 512.173 1385.47 513.96C1385.47 514.84 1385.43 515.627 1385.35 516.32C1385.29 516.987 1385.2 517.667 1385.07 518.36ZM1412.3 533.32C1409.63 533.32 1407.54 532.88 1406.02 532C1404.53 531.12 1403.46 529.907 1402.82 528.36C1402.21 526.813 1401.9 525.04 1401.9 523.04C1401.9 519.36 1402.71 516.72 1404.34 515.12C1405.97 513.493 1408.15 512.68 1410.9 512.68C1412.55 512.68 1414.02 512.96 1415.3 513.52C1416.58 514.08 1417.58 514.88 1418.3 515.92C1419.02 516.933 1419.38 518.173 1419.38 519.64C1419.38 523.907 1416.34 526.04 1410.26 526.04H1407.94C1408.15 526.867 1408.5 527.52 1408.98 528C1409.49 528.453 1410.37 528.68 1411.62 528.68C1412.31 528.68 1412.87 528.64 1413.3 528.56C1413.73 528.48 1414.13 528.4 1414.5 528.32C1414.9 528.24 1415.35 528.2 1415.86 528.2C1416.58 528.2 1417.15 528.333 1417.58 528.6C1418.01 528.84 1418.22 529.347 1418.22 530.12C1418.22 531.213 1417.74 532.027 1416.78 532.56C1415.85 533.067 1414.35 533.32 1412.3 533.32ZM1407.66 523.08C1407.87 522.787 1408.11 522.6 1408.38 522.52C1408.65 522.413 1409.06 522.36 1409.62 522.36C1411.19 522.36 1412.27 522.213 1412.86 521.92C1413.47 521.6 1413.78 521.04 1413.78 520.24C1413.78 519.227 1413.5 518.453 1412.94 517.92C1412.38 517.36 1411.67 517.08 1410.82 517.08C1409.83 517.08 1409.06 517.493 1408.5 518.32C1407.94 519.147 1407.66 520.733 1407.66 523.08ZM1429.81 533.32C1424.8 533.32 1422.29 532.213 1422.29 530C1422.29 529.307 1422.48 528.76 1422.85 528.36C1423.23 527.96 1423.72 527.76 1424.33 527.76C1424.6 527.76 1424.85 527.8 1425.09 527.88C1425.36 527.933 1425.87 528.08 1426.61 528.32C1426.93 528.427 1427.36 528.533 1427.89 528.64C1428.43 528.747 1428.95 528.8 1429.45 528.8C1430.41 528.8 1431.09 528.68 1431.49 528.44C1431.89 528.2 1432.09 527.8 1432.09 527.24C1432.09 526.787 1431.99 526.44 1431.77 526.2C1431.56 525.933 1431.11 525.68 1430.41 525.44C1429.72 525.2 1428.64 524.867 1427.17 524.44C1425.84 524.067 1424.76 523.4 1423.93 522.44C1423.13 521.453 1422.73 520.24 1422.73 518.8C1422.73 516.773 1423.47 515.227 1424.93 514.16C1426.4 513.093 1428.41 512.56 1430.97 512.56C1432.89 512.56 1434.4 512.827 1435.49 513.36C1436.59 513.893 1437.13 514.667 1437.13 515.68C1437.13 516.32 1436.95 516.853 1436.57 517.28C1436.2 517.707 1435.69 517.92 1435.05 517.92C1434.79 517.92 1434.47 517.88 1434.09 517.8C1433.75 517.72 1433.32 517.613 1432.81 517.48C1432.44 517.347 1432.04 517.24 1431.61 517.16C1431.21 517.08 1430.79 517.04 1430.33 517.04C1429.05 517.04 1428.41 517.493 1428.41 518.4C1428.41 518.933 1428.67 519.387 1429.17 519.76C1429.68 520.107 1430.65 520.493 1432.09 520.92C1434.07 521.507 1435.52 522.293 1436.45 523.28C1437.39 524.24 1437.85 525.52 1437.85 527.12C1437.85 528.987 1437.13 530.493 1435.69 531.64C1434.28 532.76 1432.32 533.32 1429.81 533.32ZM1444.49 533.32C1443.45 533.32 1442.7 533.04 1442.25 532.48C1441.82 531.92 1441.61 531.16 1441.61 530.2V505.64C1441.61 504.68 1441.82 503.92 1442.25 503.36C1442.7 502.8 1443.45 502.52 1444.49 502.52C1445.53 502.52 1446.26 502.8 1446.69 503.36C1447.14 503.92 1447.37 504.68 1447.37 505.64V520.52C1448.78 519.667 1450.04 518.707 1451.13 517.64C1452.22 516.547 1452.97 515.507 1453.37 514.52C1453.74 513.613 1454.28 513 1454.97 512.68C1455.66 512.36 1456.42 512.4 1457.25 512.8C1458.4 513.36 1458.93 514.213 1458.85 515.36C1458.82 516.32 1458.38 517.4 1457.53 518.6C1456.7 519.773 1455.68 520.787 1454.45 521.64C1456 522.173 1457.24 523.147 1458.17 524.56C1459.13 525.947 1459.61 527.96 1459.61 530.6C1459.61 532.413 1458.66 533.32 1456.77 533.32C1454.82 533.32 1453.85 532.413 1453.85 530.6C1453.85 528.653 1453.54 527.227 1452.93 526.32C1452.32 525.413 1451.5 524.96 1450.49 524.96C1449.56 524.96 1448.8 525.307 1448.21 526C1447.65 526.693 1447.37 527.893 1447.37 529.6C1447.37 531.147 1447.14 532.16 1446.69 532.64C1446.24 533.093 1445.5 533.32 1444.49 533.32ZM1466.29 509.24C1465.3 509.24 1464.48 508.92 1463.81 508.28C1463.14 507.64 1462.81 506.853 1462.81 505.92C1462.81 504.933 1463.14 504.12 1463.81 503.48C1464.48 502.84 1465.3 502.52 1466.29 502.52C1467.3 502.52 1468.13 502.84 1468.77 503.48C1469.44 504.12 1469.77 504.933 1469.77 505.92C1469.77 506.853 1469.44 507.64 1468.77 508.28C1468.13 508.92 1467.3 509.24 1466.29 509.24ZM1469.17 530.64C1469.17 532.427 1468.24 533.32 1466.37 533.32C1465.46 533.32 1464.74 533.107 1464.21 532.68C1463.68 532.227 1463.41 531.547 1463.41 530.64V515.4C1463.41 514.547 1463.62 513.88 1464.05 513.4C1464.5 512.92 1465.25 512.68 1466.29 512.68C1467.33 512.68 1468.06 512.92 1468.49 513.4C1468.94 513.88 1469.17 514.547 1469.17 515.4V530.64ZM1480.03 530.64C1480.03 532.427 1479.1 533.32 1477.23 533.32C1476.33 533.32 1475.61 533.093 1475.07 532.64C1474.54 532.187 1474.27 531.52 1474.27 530.64V505.64C1474.27 504.68 1474.49 503.92 1474.91 503.36C1475.37 502.8 1476.11 502.52 1477.15 502.52C1478.19 502.52 1478.93 502.8 1479.35 503.36C1479.81 503.92 1480.03 504.68 1480.03 505.64V530.64ZM1491.01 530.64C1491.01 532.427 1490.08 533.32 1488.21 533.32C1487.3 533.32 1486.58 533.093 1486.05 532.64C1485.52 532.187 1485.25 531.52 1485.25 530.64V505.64C1485.25 504.68 1485.46 503.92 1485.89 503.36C1486.34 502.8 1487.09 502.52 1488.13 502.52C1489.17 502.52 1489.9 502.8 1490.33 503.36C1490.78 503.92 1491.01 504.68 1491.01 505.64V530.64ZM1499.03 509.24C1498.04 509.24 1497.21 508.92 1496.55 508.28C1495.88 507.64 1495.55 506.853 1495.55 505.92C1495.55 504.933 1495.88 504.12 1496.55 503.48C1497.21 502.84 1498.04 502.52 1499.03 502.52C1500.04 502.52 1500.87 502.84 1501.51 503.48C1502.17 504.12 1502.51 504.933 1502.51 505.92C1502.51 506.853 1502.17 507.64 1501.51 508.28C1500.87 508.92 1500.04 509.24 1499.03 509.24ZM1501.91 530.64C1501.91 532.427 1500.97 533.32 1499.11 533.32C1498.2 533.32 1497.48 533.107 1496.95 532.68C1496.41 532.227 1496.15 531.547 1496.15 530.64V515.4C1496.15 514.547 1496.36 513.88 1496.79 513.4C1497.24 512.92 1497.99 512.68 1499.03 512.68C1500.07 512.68 1500.8 512.92 1501.23 513.4C1501.68 513.88 1501.91 514.547 1501.91 515.4V530.64ZM1509.06 533.32C1507.14 533.32 1506.18 532.413 1506.18 530.6V521C1506.18 518.44 1507 516.413 1508.62 514.92C1510.28 513.427 1512.45 512.68 1515.14 512.68C1517.84 512.68 1520 513.427 1521.62 514.92C1523.28 516.413 1524.1 518.44 1524.1 521V530.6C1524.1 532.413 1523.14 533.32 1521.22 533.32C1519.3 533.32 1518.34 532.413 1518.34 530.6V521.32C1518.34 520.067 1518.06 519.12 1517.5 518.48C1516.94 517.813 1516.16 517.48 1515.14 517.48C1514.13 517.48 1513.34 517.813 1512.78 518.48C1512.22 519.12 1511.94 520.067 1511.94 521.32V530.6C1511.94 532.413 1510.98 533.32 1509.06 533.32ZM1546.16 535.44C1546.16 537.707 1545.09 539.4 1542.96 540.52C1540.83 541.64 1537.77 542.2 1533.8 542.2C1531.75 542.2 1530.24 541.933 1529.28 541.4C1528.35 540.893 1527.88 540.093 1527.88 539C1527.88 538.227 1528.09 537.707 1528.52 537.44C1528.95 537.2 1529.52 537.08 1530.24 537.08C1530.77 537.08 1531.23 537.107 1531.6 537.16C1531.97 537.24 1532.37 537.307 1532.8 537.36C1533.25 537.44 1533.81 537.48 1534.48 537.48C1536.59 537.48 1538.09 537.32 1539 537C1539.93 536.68 1540.4 536.027 1540.4 535.04C1540.4 534.213 1540.07 533.547 1539.4 533.04C1538.73 532.533 1537.89 532.28 1536.88 532.28C1530.75 532.28 1527.68 529.013 1527.68 522.48C1527.68 519.147 1528.45 516.68 1530 515.08C1531.55 513.48 1533.85 512.68 1536.92 512.68C1538.95 512.68 1540.63 513.027 1541.96 513.72C1542.6 511.32 1543.96 510.12 1546.04 510.12C1547.05 510.12 1547.83 510.387 1548.36 510.92C1548.92 511.427 1549.2 512.173 1549.2 513.16C1549.2 514.067 1548.93 514.72 1548.4 515.12C1547.87 515.52 1547.01 515.72 1545.84 515.72C1545.33 515.72 1544.87 515.76 1544.44 515.84C1545.59 517.44 1546.16 519.667 1546.16 522.52C1546.16 524.307 1545.89 525.787 1545.36 526.96C1544.85 528.133 1543.91 529.107 1542.52 529.88C1543.85 530.36 1544.79 531.107 1545.32 532.12C1545.88 533.107 1546.16 534.213 1546.16 535.44ZM1533.44 522.48C1533.44 525.813 1534.6 527.48 1536.92 527.48C1539.24 527.48 1540.4 525.813 1540.4 522.48C1540.4 520.747 1540.11 519.48 1539.52 518.68C1538.96 517.88 1538.09 517.48 1536.92 517.48C1535.77 517.48 1534.91 517.88 1534.32 518.68C1533.73 519.48 1533.44 520.747 1533.44 522.48ZM1566.93 533.32C1565.81 533.32 1564.93 533 1564.29 532.36C1563.65 531.72 1563.07 530.64 1562.53 529.12L1558.53 517C1558.32 516.28 1558.21 515.76 1558.21 515.44C1558.21 514.667 1558.49 514 1559.05 513.44C1559.64 512.853 1560.36 512.56 1561.21 512.56C1561.88 512.56 1562.44 512.72 1562.89 513.04C1563.37 513.36 1563.69 513.8 1563.85 514.36L1567.65 527C1568.69 525.32 1569.43 523.773 1569.85 522.36C1570.31 520.947 1570.53 519.413 1570.53 517.76L1570.45 515C1570.45 514.307 1570.73 513.733 1571.29 513.28C1571.85 512.8 1572.55 512.56 1573.37 512.56C1573.85 512.56 1574.28 512.733 1574.65 513.08C1575.03 513.427 1575.39 514.027 1575.73 514.88C1575.97 515.467 1576.24 516.227 1576.53 517.16C1576.85 518.093 1577.24 519.347 1577.69 520.92C1578.17 522.467 1578.76 524.493 1579.45 527C1580.39 525.96 1581.12 524.68 1581.65 523.16C1582.19 521.613 1582.39 519.813 1582.25 517.76L1582.09 515C1582.07 514.307 1582.35 513.733 1582.93 513.28C1583.55 512.8 1584.28 512.56 1585.13 512.56C1586.73 512.56 1587.65 513.32 1587.89 514.84C1587.95 515.187 1587.99 515.587 1588.01 516.04C1588.04 516.493 1588.05 516.947 1588.05 517.4C1588.05 519.347 1587.75 521.307 1587.13 523.28C1586.55 525.227 1585.72 527.027 1584.65 528.68C1583.53 530.413 1582.56 531.627 1581.73 532.32C1580.93 532.987 1580.05 533.32 1579.09 533.32C1578.45 533.32 1577.8 532.96 1577.13 532.24C1576.49 531.493 1575.89 530.48 1575.33 529.2C1574.77 527.92 1574.32 526.48 1573.97 524.88C1573.71 525.707 1573.28 526.613 1572.69 527.6C1572.13 528.56 1571.49 529.48 1570.77 530.36C1570.05 531.24 1569.35 531.96 1568.65 532.52C1567.99 533.053 1567.41 533.32 1566.93 533.32ZM1594.77 509.24C1593.78 509.24 1592.95 508.92 1592.29 508.28C1591.62 507.64 1591.29 506.853 1591.29 505.92C1591.29 504.933 1591.62 504.12 1592.29 503.48C1592.95 502.84 1593.78 502.52 1594.77 502.52C1595.78 502.52 1596.61 502.84 1597.25 503.48C1597.91 504.12 1598.25 504.933 1598.25 505.92C1598.25 506.853 1597.91 507.64 1597.25 508.28C1596.61 508.92 1595.78 509.24 1594.77 509.24ZM1597.65 530.64C1597.65 532.427 1596.71 533.32 1594.85 533.32C1593.94 533.32 1593.22 533.107 1592.69 532.68C1592.15 532.227 1591.89 531.547 1591.89 530.64V515.4C1591.89 514.547 1592.1 513.88 1592.53 513.4C1592.98 512.92 1593.73 512.68 1594.77 512.68C1595.81 512.68 1596.54 512.92 1596.97 513.4C1597.42 513.88 1597.65 514.547 1597.65 515.4V530.64ZM1610.65 533.32C1608.17 533.32 1606.33 532.733 1605.13 531.56C1603.96 530.387 1603.37 528.587 1603.37 526.16V517.84H1602.33C1600.52 517.84 1599.61 517.027 1599.61 515.4C1599.61 513.8 1600.52 513 1602.33 513H1603.37V508.68C1603.37 507.8 1603.64 507.08 1604.17 506.52C1604.73 505.96 1605.45 505.68 1606.33 505.68C1607.19 505.68 1607.87 505.947 1608.37 506.48C1608.88 506.987 1609.13 507.693 1609.13 508.6V510.56C1609.13 511.547 1608.97 512.36 1608.65 513H1612.45C1614.27 513 1615.17 513.8 1615.17 515.4C1615.17 517.027 1614.27 517.84 1612.45 517.84H1609.13V526.28C1609.13 527.08 1609.23 527.653 1609.41 528C1609.6 528.32 1609.91 528.48 1610.33 528.48C1610.89 528.48 1611.31 528.44 1611.57 528.36C1611.87 528.253 1612.23 528.2 1612.65 528.2C1613.37 528.2 1613.95 528.333 1614.37 528.6C1614.8 528.84 1615.01 529.347 1615.01 530.12C1615.01 531.213 1614.67 532.027 1613.97 532.56C1613.28 533.067 1612.17 533.32 1610.65 533.32ZM1624.75 530.64C1624.75 532.427 1623.82 533.32 1621.95 533.32C1621.05 533.32 1620.33 533.093 1619.79 532.64C1619.26 532.187 1618.99 531.52 1618.99 530.64V505.64C1618.99 503.56 1619.97 502.52 1621.91 502.52C1623.83 502.52 1624.79 503.56 1624.79 505.64V509.92C1624.79 510.667 1624.71 511.387 1624.55 512.08C1624.39 512.773 1624.13 513.493 1623.75 514.24C1624.21 513.68 1624.81 513.28 1625.55 513.04C1626.3 512.8 1627.17 512.68 1628.15 512.68C1629.91 512.68 1631.45 513.027 1632.75 513.72C1634.06 514.413 1635.07 515.387 1635.79 516.64C1636.54 517.867 1636.91 519.333 1636.91 521.04V530.64C1636.91 532.427 1635.98 533.32 1634.11 533.32C1633.21 533.32 1632.49 533.093 1631.95 532.64C1631.42 532.187 1631.15 531.52 1631.15 530.64V521.28C1631.15 520.027 1630.86 519.08 1630.27 518.44C1629.71 517.8 1628.93 517.48 1627.91 517.48C1626.93 517.48 1626.15 517.813 1625.59 518.48C1625.03 519.12 1624.75 520.053 1624.75 521.28V530.64ZM1656.52 530.64C1656.52 532.427 1655.59 533.32 1653.72 533.32C1652.81 533.32 1652.09 533.093 1651.56 532.64C1651.03 532.187 1650.76 531.52 1650.76 530.64V514.8C1650.76 511.12 1651.51 508.493 1653 506.92C1654.49 505.347 1656.83 504.56 1660 504.56C1663.25 504.56 1665.65 505.36 1667.2 506.96C1668.75 508.56 1669.52 511.173 1669.52 514.8V530.64C1669.52 532.427 1668.59 533.32 1666.72 533.32C1665.81 533.32 1665.09 533.093 1664.56 532.64C1664.03 532.187 1663.76 531.52 1663.76 530.64V521C1663.25 521.453 1662.69 521.84 1662.08 522.16C1661.49 522.48 1660.8 522.64 1660 522.64C1658.83 522.64 1657.95 522.853 1657.36 523.28C1656.8 523.707 1656.52 524.467 1656.52 525.56V530.64ZM1656.28 518.92C1656.71 518.493 1657.21 518.16 1657.8 517.92C1658.41 517.68 1659.15 517.56 1660 517.56C1661.01 517.56 1661.79 517.48 1662.32 517.32C1662.88 517.16 1663.27 516.853 1663.48 516.4C1663.69 515.947 1663.8 515.28 1663.8 514.4C1663.8 512.427 1663.52 511.08 1662.96 510.36C1662.4 509.613 1661.4 509.24 1659.96 509.24C1658.63 509.24 1657.71 509.627 1657.2 510.4C1656.72 511.147 1656.48 512.533 1656.48 514.56C1656.48 515.6 1656.47 516.48 1656.44 517.2C1656.41 517.92 1656.36 518.493 1656.28 518.92ZM1677.9 533.32C1675.93 533.32 1674.94 532.427 1674.94 530.64V507.24C1674.94 506.307 1675.17 505.627 1675.62 505.2C1676.08 504.773 1676.8 504.56 1677.78 504.56C1679.73 504.56 1680.7 505.453 1680.7 507.24V530.64C1680.7 531.547 1680.48 532.227 1680.02 532.68C1679.6 533.107 1678.89 533.32 1677.9 533.32Z" fill="black"/>
<path d="M1229.12 316.227C1229.12 319.82 1225.33 321.617 1217.75 321.617H1190.56V479H1130.56V321.617H1112.98C1106.97 321.617 1102.83 321.891 1100.56 322.438C1097.59 323.062 1095.45 323.375 1094.12 323.375C1090.13 323.375 1088.14 321.812 1088.14 318.688C1088.14 315.016 1092.01 313.18 1099.74 313.18H1204.27C1209.66 313.18 1213.65 312.945 1216.23 312.477C1219.35 311.93 1221.7 311.656 1223.26 311.656C1227.16 311.656 1229.12 313.18 1229.12 316.227ZM1283.37 458.141C1269.08 458.141 1259.31 458.023 1254.08 457.789L1250.68 465.875C1249.66 468.141 1248.73 470.523 1247.87 473.023C1246.07 477.867 1243.57 480.289 1240.37 480.289C1238.88 480.289 1237.67 479.82 1236.73 478.883C1235.8 477.945 1235.33 476.969 1235.33 475.953C1235.33 474.234 1236.07 472.32 1237.55 470.211C1239.9 466.93 1242.2 462.633 1244.47 457.32C1237.75 456.695 1234.39 454.742 1234.39 451.461C1234.39 448.18 1236.3 446.539 1240.13 446.539C1242.48 446.539 1245.21 446.93 1248.34 447.711L1306.81 305.68L1386.97 479H1325.91L1316.19 458.141H1283.37ZM1257.83 448.648C1265.33 449.273 1272.05 449.586 1277.98 449.586H1312.32L1283.02 386.422L1257.83 448.648ZM1491.97 422.164L1501.58 422.867C1515.33 422.867 1527.01 418.062 1536.62 408.453C1546.23 398.844 1551.03 386.891 1551.03 372.594C1551.03 353.844 1542.79 339.938 1526.3 330.875C1517.24 325.875 1507.55 322.984 1497.24 322.203C1492.87 321.812 1488.8 321.617 1485.05 321.617H1477.09C1475.45 321.617 1474 321.656 1472.75 321.734V479H1412.98V313.18C1431.27 313.18 1446.07 313.18 1457.4 313.18C1468.73 313.18 1476.11 313.219 1479.55 313.297C1482.98 313.375 1486.03 313.492 1488.69 313.648C1491.42 313.727 1493.96 313.844 1496.3 314C1499.74 314.312 1504.59 315.055 1510.84 316.227C1517.16 317.398 1523.41 319.625 1529.59 322.906C1535.76 326.188 1541.07 330.25 1545.52 335.094C1555.13 345.406 1559.94 357.672 1559.94 371.891C1559.94 385.953 1555.48 398.375 1546.58 409.156C1537.44 420.172 1525.25 427.281 1510.02 430.484C1517.28 452.984 1526.54 466.422 1537.79 470.797C1541.23 472.125 1544.66 472.789 1548.1 472.789L1557.36 470.562C1560.25 470.562 1561.7 472.047 1561.7 475.016C1561.7 479.156 1556.85 481.227 1547.16 481.227C1540.13 481.227 1533.69 479.273 1527.83 475.367C1518.69 469.898 1510.91 459.273 1504.51 443.492L1501.11 435.172C1500.56 433.844 1500.05 433.023 1499.59 432.711C1499.2 432.398 1498.45 432.242 1497.36 432.242C1496.34 432.242 1495.45 432.32 1494.66 432.477L1491.85 432.594C1488.73 432.594 1486.58 432.008 1485.41 430.836C1484.31 429.664 1483.77 428.453 1483.77 427.203C1483.77 423.844 1486.5 422.164 1491.97 422.164ZM1618.3 458.141C1604 458.141 1594.23 458.023 1589 457.789L1585.6 465.875C1584.59 468.141 1583.65 470.523 1582.79 473.023C1580.99 477.867 1578.49 480.289 1575.29 480.289C1573.8 480.289 1572.59 479.82 1571.66 478.883C1570.72 477.945 1570.25 476.969 1570.25 475.953C1570.25 474.234 1570.99 472.32 1572.48 470.211C1574.82 466.93 1577.12 462.633 1579.39 457.32C1572.67 456.695 1569.31 454.742 1569.31 451.461C1569.31 448.18 1571.23 446.539 1575.05 446.539C1577.4 446.539 1580.13 446.93 1583.26 447.711L1641.73 305.68L1721.89 479H1660.84L1651.11 458.141H1618.3ZM1592.75 448.648C1600.25 449.273 1606.97 449.586 1612.91 449.586H1647.24L1617.95 386.422L1592.75 448.648Z" fill="#BF381D"/>
</g>
<defs>
<clipPath id="clip0_169_28">
<rect width="1920" height="1080" fill="white"/>
</clipPath>
</defs>
</svg>
